<?xml version="1.0" encoding="UTF-8"?>
<svg id="Layer_1" data-name="Layer 1" xmlns="http://www.w3.org/2000/svg" xmlns:xlink="http://www.w3.org/1999/xlink" viewBox="0 0 865.84 1310.12">
  <defs>
    <style>
      .cls-1 {
        fill: #fff;
      }

      .cls-2 {
        fill: #f15c5b;
      }

      .cls-3 {
        fill: #171717;
      }

      .cls-4 {
        fill: #a266aa;
      }

      .cls-5 {
        clip-path: url(#clippath);
      }

      .cls-6 {
        fill: none;
      }

      .cls-7 {
        fill: #64a5d5;
      }

      .cls-8 {
        fill: #7fbe42;
      }

      .cls-9 {
        fill: #231f20;
      }
    </style>
    <clipPath id="clippath">
      <rect class="cls-6" x="84.04" y="84.04" width="700.49" height="700.49"/>
    </clipPath>
  </defs>
  <rect class="cls-1" y="0" width="868.57" height="1316.64"/>
  <g class="cls-5">
    <rect class="cls-7" x="356.19" y="-110.39" width="166.36" height="1102.02" transform="translate(-182.88 439.74) rotate(-45)"/>
    <rect class="cls-3" x="65.29" y="180.52" width="166.36" height="1102.02" transform="translate(-473.78 319.24) rotate(-45)"/>
    <rect class="cls-4" x="211.35" y="34.46" width="166.36" height="1102.02" transform="translate(-327.73 379.74) rotate(-45)"/>
    <rect class="cls-8" x="502.25" y="-256.45" width="166.36" height="1102.02" transform="translate(-36.82 500.24) rotate(-45)"/>
    <rect class="cls-2" x="648.31" y="-402.51" width="166.36" height="1102.02" transform="translate(109.24 560.74) rotate(-45)"/>
  </g>
  <g>
    <path class="cls-9" d="M242.39,1003.87h-50.68s1.53,147.93,0,170.66c-1.53,22.74-3.26,71.35-58.17,73.17-14.38,.48-30.29-1.03-49.5-11.81v-48.01c12.27,9.5,49.12,15.15,49.12-13.35v-170.66h-32.25v-28.22l32.25-15.74v-15.74c0-18.3,3.1-32.54,9.31-42.71,6.21-10.17,14.97-17.34,26.3-21.5,11.33-4.16,24.73-6.24,40.22-6.24,11.39,0,21.76,.93,31.1,2.78,9.34,1.86,16.96,3.94,22.84,6.24l-14.97,43c-4.48-1.41-9.34-2.69-14.59-3.84-5.25-1.15-11.26-1.73-18.04-1.73-8.19,0-14.18,2.47-17.95,7.39-3.78,4.93-5.66,11.23-5.66,18.91v13.44h50.68v43.96Zm73.75-128.04c8.7,0,16.19,2.02,22.46,6.05,6.27,4.03,9.41,11.55,9.41,22.56s-3.14,18.4-9.41,22.56c-6.27,4.16-13.76,6.24-22.46,6.24s-16.35-2.08-22.56-6.24c-6.21-4.16-9.31-11.68-9.31-22.56s3.1-18.52,9.31-22.56c6.21-4.03,13.73-6.05,22.56-6.05Zm29.18,84.08v214.62h-58.55v-214.62h58.55Z"/>
    <path class="cls-9" d="M590.94,1066.83c0,17.92-2.4,33.79-7.2,47.61-4.8,13.82-11.78,25.5-20.92,35.03-9.15,9.54-20.16,16.74-33.02,21.6-12.86,4.86-27.35,7.3-43.48,7.3-15.1,0-28.96-2.43-41.56-7.3-12.61-4.86-23.55-12.06-32.83-21.6-9.28-9.53-16.45-21.21-21.5-35.03-5.06-13.82-7.58-29.69-7.58-47.61,0-23.81,4.22-43.96,12.67-60.47,8.45-16.51,20.47-29.05,36.09-37.63,15.61-8.57,34.23-12.86,55.86-12.86,20.09,0,37.91,4.29,53.46,12.86,15.55,8.58,27.77,21.12,36.67,37.63,8.89,16.51,13.34,36.67,13.34,60.47Zm-148.39,0c0,14.08,1.53,25.92,4.61,35.51,3.07,9.6,7.87,16.83,14.4,21.69,6.53,4.87,15.04,7.3,25.53,7.3s18.78-2.43,25.24-7.3c6.46-4.86,11.2-12.09,14.21-21.69,3-9.6,4.51-21.43,4.51-35.51s-1.51-26.01-4.51-35.42c-3.01-9.41-7.78-16.48-14.3-21.21-6.53-4.73-15.04-7.1-25.53-7.1-15.49,0-26.72,5.31-33.69,15.93-6.98,10.63-10.46,26.56-10.46,47.8Z"/>
    <path class="cls-9" d="M770.25,1110.79c0,14.59-3.43,26.91-10.27,36.95-6.85,10.05-17.05,17.66-30.62,22.84-13.57,5.18-30.46,7.78-50.68,7.78-14.97,0-27.81-.96-38.49-2.88-10.69-1.92-21.47-5.12-32.35-9.6v-48.38c11.64,5.25,24.16,9.57,37.53,12.96,13.37,3.39,25.11,5.09,35.23,5.09,11.39,0,19.55-1.69,24.48-5.09,4.92-3.39,7.39-7.84,7.39-13.34,0-3.58-.99-6.82-2.98-9.69-1.99-2.88-6.24-6.14-12.77-9.79-6.53-3.65-16.77-8.41-30.71-14.3-13.44-5.63-24.48-11.33-33.12-17.08-8.64-5.76-15.04-12.57-19.2-20.45-4.16-7.87-6.24-17.88-6.24-30.04,0-19.84,7.71-34.78,23.13-44.82,15.42-10.05,36.06-15.07,61.91-15.07,13.31,0,26.01,1.34,38.11,4.03,12.09,2.69,24.54,6.98,37.34,12.86l-17.66,42.23c-10.62-4.61-20.64-8.38-30.04-11.33-9.41-2.94-18.98-4.42-28.7-4.42-8.58,0-15.04,1.15-19.39,3.46-4.35,2.3-6.53,5.83-6.53,10.56,0,3.46,1.12,6.53,3.36,9.21,2.24,2.69,6.59,5.66,13.05,8.93,6.46,3.26,15.96,7.46,28.51,12.57,12.16,4.99,22.72,10.21,31.67,15.65,8.96,5.44,15.87,12.16,20.73,20.16,4.86,8,7.3,18.33,7.3,31Z"/>
  </g>
</svg>